Coordinates
version=1
nRows=14
nColumns=41
inDegrees=yes

Units are S.I. units (second, meters, Newtons, ...)
If the header above contains a line with 'inDegrees', this indicates whether rotational values are in degrees (yes) or radians (no).

endheader
time	pelvis_tilt	pelvis_list	pelvis_rotation	pelvis_tx	pelvis_ty	pelvis_tz	hip_flexion_r	hip_adduction_r	hip_rotation_r	knee_angle_r	ankle_angle_r	subtalar_angle_r	mtp_angle_r	hip_flexion_l	hip_adduction_l	hip_rotation_l	knee_angle_l	ankle_angle_l	subtalar_angle_l	mtp_angle_l	L5_S1_Flex_Ext	L5_S1_Lat_Bending	L5_S1_axial_rotation	neck_flexion	neck_bending	neck_rotation	arm_flex_r	arm_add_r	arm_rot_r	elbow_flex_r	pro_sup_r	wrist_flex_r	wrist_dev_r	arm_flex_l	arm_add_l	arm_rot_l	elbow_flex_l	pro_sup_l	wrist_flex_l	wrist_dev_l
      4.40000000	     -2.66760381	      3.07054354	    -84.58431621	      0.14112702	      1.05972561	      0.01634265	      1.71137997	      0.74208855	      1.47601158	      0.28869873	      6.15407176	    -11.15522717	      0.00000000	      1.16784661	     -3.23625391	     -2.31777158	      0.00000000	     13.20997163	      0.74661370	      0.00000000	     -0.03040917	      1.04660783	     -0.15153595	      0.00000000	      0.00000000	      0.00000002	     14.54293347	    -14.17446704	    -26.68635923	     31.44323612	     66.26121670	      0.00000000	      0.00000000	     13.26263460	    -15.43067986	    -14.67265973	     22.49130176	     61.15506728	      0.00000000	      0.00000000
      4.42000000	     -2.69206198	      3.25371818	    -84.62403412	      0.14079712	      1.05878868	      0.01604939	      1.78571431	      0.73394944	      1.56900430	      0.18469378	      6.35055141	    -11.17669103	      0.00000000	      1.28634260	     -3.22990799	     -2.11391023	      0.00000000	     13.23297216	      0.67118882	      0.00000000	     -0.03238847	      1.14638983	      0.14575367	      0.00000000	      0.00000000	      0.00000002	     14.16545146	    -13.90569841	    -27.46426385	     28.93089232	     67.45213015	      0.00000000	      0.00000000	     12.39112421	    -14.78444474	    -17.04168759	     20.51984916	     60.90198862	      0.00000000	      0.00000000
      4.44000000	     -2.69345266	      3.58685666	    -84.59739865	      0.14088608	      1.05804493	      0.01627841	      1.99357147	      0.70357964	      1.56437506	      0.03447649	      6.46606721	    -11.24708390	      0.00000000	      1.58007946	     -3.18889811	     -1.95557049	      0.00000000	     13.19878760	      0.73933605	      0.00000000	     -0.03366674	      1.23480274	      0.37319258	      0.00000000	      0.00000000	      0.00000002	     13.11592958	    -13.56764730	    -27.51641830	     28.41781227	     67.48450619	      0.00000000	      0.00000000	     11.02219011	    -14.43331081	    -17.14334152	     19.93279880	     60.88654422	      0.00000000	      0.00000000
      4.46000000	     -2.62138450	      3.65596216	    -84.52125499	      0.14152818	      1.05813126	      0.01710793	      1.97581629	      0.61731026	      1.53254723	      0.00000000	      6.52723023	    -11.45502205	      0.00000000	      1.61554649	     -3.07606792	     -1.74016671	      0.00000000	     12.88210541	      0.40399887	      0.00000000	     -0.03017154	      1.26660175	      0.45167889	      0.00000000	      0.00000000	      0.00000002	     13.19877876	    -13.43128654	    -29.48376472	     25.11211871	     69.45459411	      0.00000000	      0.00000000	     10.59286595	    -13.67057907	    -21.97957552	     17.38055549	     60.88727516	      0.00000000	      0.00000000
      4.48000000	     -2.66924668	      3.88030753	    -84.47443548	      0.14188456	      1.05798634	      0.01860894	      2.13721901	      0.67043139	      1.56424347	      0.00000000	      6.65672984	    -11.52934236	      0.00000000	      1.79917280	     -3.10658925	     -1.66454688	      0.00000000	     12.89799338	      0.41143817	      0.00000000	     -0.03186292	      1.31634450	      0.52964918	      0.00000000	      0.00000000	      0.00000002	     12.04553902	    -13.08557558	    -29.54942156	     24.63087228	     69.49308796	      0.00000000	      0.00000000	      9.37452799	    -13.35905376	    -22.09331906	     16.90960183	     60.89053798	      0.00000000	      0.00000000
      4.50000000	     -2.69970865	      3.91069136	    -84.36106063	      0.14240460	      1.05772702	      0.01997211	      2.07943401	      0.71100056	      1.54040891	      0.00000000	      6.92481022	    -11.68936968	      0.00000000	      1.77710685	     -3.13320781	     -1.50075742	      0.00000000	     12.82076903	      0.18294494	      0.00000000	     -0.03318178	      1.49819452	     -0.74324247	      0.00000000	      0.00000000	      0.00000002	     12.29841740	    -12.42482508	    -33.89029668	     22.54120110	     88.40894582	      0.00000000	      0.00000000	      7.86839717	    -12.17854598	    -36.03200757	     17.05377016	     75.21763777	      0.00000000	      0.00000000
      4.52000000	     -2.67425107	      4.08007614	    -84.34308264	      0.14248885	      1.05694578	      0.02113873	      2.20439056	      0.68153405	      1.47732517	      0.00000000	      6.92659929	    -11.75686500	      0.00000000	      1.88043970	     -3.10683173	     -1.51554163	      0.00000000	     12.77036678	      0.15634352	      0.00000000	     -0.03212801	      1.49269853	     -0.71798046	      0.00000000	      0.00000000	      0.00000002	     11.25105048	    -12.26748105	    -34.00984334	     22.11100236	     88.39234010	      0.00000000	      0.00000000	      6.85440437	    -11.94871901	    -36.09980838	     16.65260610	     75.21890874	      0.00000000	      0.00000000
      4.54000000	     -2.57694799	      4.12741048	    -84.25143625	      0.14248214	      1.05623373	      0.02228400	      2.20329266	      0.58114036	      1.52449051	      0.00000000	      6.73329718	    -12.32736930	      0.00000000	      1.85693911	     -3.02157222	     -1.26192627	      0.00000000	     12.49292604	     -0.46499806	      0.00000000	     -0.03230677	      1.31014384	     -0.31828249	      0.00000000	      0.00000000	      0.00000002	     10.59749112	    -12.13768806	    -36.17136088	     20.48434036	     88.16423053	      0.00000000	      0.00000000	      6.31720830	    -11.76492371	    -37.13492254	     16.22009062	     75.58765198	      0.00000000	      0.00000000
      4.56000000	     -2.55459328	      4.23097990	    -84.20652952	      0.14232533	      1.05572860	      0.02317849	      2.28711964	      0.54604093	      1.49937987	      0.00000000	      6.72948318	    -12.34213988	      0.00000000	      1.87588306	     -3.02633907	     -1.28793789	      0.00000000	     12.43459098	     -0.47190953	      0.00000000	     -0.03273496	      1.29113076	     -0.34022705	      0.00000000	      0.00000000	      0.00000002	      9.79032748	    -12.01988040	    -36.28444317	     20.20193119	     88.16236555	      0.00000000	      0.00000000	      5.53259010	    -11.69161680	    -37.22878516	     15.93989264	     75.60244003	      0.00000000	      0.00000000
      4.58000000	     -2.51264321	      4.32669594	    -84.15562513	      0.14190536	      1.05560563	      0.02320869	      2.38953862	      0.50487166	      1.46459863	      0.00000000	      6.73377984	    -12.35686200	      0.00000000	      1.88782955	     -3.01545224	     -1.31622461	      0.00000000	     12.38461175	     -0.50301127	      0.00000000	     -0.02698627	      1.25630987	     -0.36408057	      0.00000000	      0.00000000	      0.00000002	      9.10056285	    -11.86936164	    -36.38419029	     19.91445445	     88.16095344	      0.00000000	      0.00000000	      4.92327100	    -11.67639460	    -37.31704514	     15.73606684	     75.61474192	      0.00000000	      0.00000000
      4.60000000	     -2.46922922	      4.41606653	    -84.08331244	      0.14137725	      1.05574299	      0.02265762	      2.48768990	      0.44081885	      1.41971194	      0.00000000	      6.73943216	    -12.36380650	      0.00000000	      1.90247550	     -3.01713686	     -1.34493446	      0.00000000	     12.30307455	     -0.55770224	      0.00000000	     -0.03254334	      1.14201793	     -0.38873310	      0.00000000	      0.00000000	      0.00000002	      8.53043247	    -11.70460369	    -36.49890006	     19.62339890	     88.16102513	      0.00000000	      0.00000000	      4.45423617	    -11.74540554	    -37.42047641	     15.59960765	     75.63403959	      0.00000000	      0.00000000
      4.62000000	     -2.36172271	      4.47690261	    -83.90162884	      0.14070886	      1.05610618	      0.02165896	      2.57368300	      0.32791114	      1.17840270	      0.00000000	      6.86863174	    -12.13740368	      0.00000000	      1.94203652	     -2.94021953	     -0.74943043	      0.00000000	     11.67850078	     -1.79917234	      0.00000000	     -0.02843247	      0.86557124	     -0.63557922	      0.00000000	      0.00000000	      0.00000002	      8.78392238	    -11.38087251	    -38.61689354	     17.88810632	     88.29203154	      0.00000000	      0.00000000	      4.10535775	    -11.79787965	    -39.00409029	     15.90484787	     76.37306112	      0.00000000	      0.00000000
      4.64000000	     -2.35454518	      4.56165080	    -83.82477037	      0.13993821	      1.05660599	      0.02133407	      2.69274237	      0.33437510	      1.13755343	      0.00000000	      6.84605473	    -12.14350608	      0.00000000	      1.98380739	     -2.98219920	     -0.83484505	      0.00000000	     11.57748574	     -1.79972234	      0.00000000	     -0.03184256	      0.77895647	     -0.68734785	      0.00000000	      0.00000000	      0.00000002	      8.37304395	    -11.17914164	    -38.66819289	     17.74565424	     88.31174898	      0.00000000	      0.00000000	      3.87612175	    -11.86401827	    -39.07332053	     15.81717662	     76.40623814	      0.00000000	      0.00000000
      4.66000000	     -2.33971723	      4.64109829	    -83.73218364	      0.13926084	      1.05731993	      0.02157212	      2.78893138	      0.34358004	      1.06369277	      0.00000000	      6.82577611	    -12.15668297	      0.00000000	      2.02716176	     -3.01850955	     -0.93389727	      0.00000000	     11.42444959	     -1.83263137	      0.00000000	     -0.03113326	      0.67496635	     -0.74572483	      0.00000000	      0.00000000	      0.00000002	      8.01475502	    -10.95198222	    -38.72339302	     17.57823554	     88.33074889	      0.00000000	      0.00000000	      3.74460526	    -11.99578220	    -39.14217480	     15.77481862	     76.44222712	      0.00000000	      0.00000000
